<svg width="20" height="20" viewBox="0 0 20 20" fill="none" xmlns="http://www.w3.org/2000/svg">
<path d="M9.01525 1.00275C9.30755 1.00229 9.63371 1.00275 10.0001 1.00275C12.9314 1.00275 13.2788 1.01327 14.4364 1.06588C15.5068 1.11483 16.0877 1.29371 16.4747 1.444C16.987 1.64301 17.3523 1.88091 17.7363 2.26521C18.1206 2.64951 18.3584 3.0155 18.5579 3.5279C18.7082 3.91449 18.8872 4.49551 18.936 5.56605C18.9886 6.72352 19 7.07122 19 10.0015C19 12.9318 18.9886 13.2795 18.936 14.4369C18.887 15.5075 18.7082 16.0885 18.5579 16.4751C18.3589 16.9875 18.1206 17.3523 17.7363 17.7364C17.3521 18.1207 16.9873 18.3586 16.4747 18.5576C16.0882 18.7086 15.5068 18.887 14.4364 18.936C13.279 18.9886 12.9314 19 10.0001 19C7.06862 19 6.72119 18.9886 5.56387 18.936C4.49346 18.8865 3.91251 18.7077 3.52529 18.5574C3.01296 18.3584 2.64701 18.1205 2.26276 17.7362C1.87851 17.3519 1.64064 16.9868 1.4412 16.4742C1.29093 16.0876 1.11184 15.5066 1.06313 14.436C1.01052 13.2785 1 12.9308 1 9.99874C1 7.06664 1.01052 6.72077 1.06313 5.56331C1.11207 4.49276 1.29093 3.91174 1.4412 3.5247C1.64019 3.0123 1.87851 2.6463 2.26276 2.26201C2.64701 1.87771 3.01296 1.63981 3.52529 1.44034C3.91229 1.28937 4.49346 1.11094 5.56387 1.06176C6.57664 1.01601 6.96912 1.00229 9.01525 1V1.00275Z" stroke="#656B81"/>
<path d="M15.1247 3.72306C14.4887 3.72306 13.9727 4.23846 13.9727 4.87467C13.9727 5.51067 14.4887 6.02668 15.1247 6.02668C15.7607 6.02668 16.2767 5.51067 16.2767 4.87467C16.2767 4.23866 15.7607 3.72266 15.1247 3.72266V3.72306Z" stroke="#656B81"/>
<path d="M10.0008 6.80078C11.768 6.80078 13.2008 8.2334 13.2008 10.0008C13.2008 11.768 11.768 13.2008 10.0008 13.2008C8.2334 13.2008 6.80078 11.768 6.80078 10.0008C6.80078 8.2334 8.2334 6.80078 10.0008 6.80078V6.80078Z" stroke="#656B81"/>
</svg>
