<svg width="21" height="20" viewBox="0 0 21 20" fill="none" xmlns="http://www.w3.org/2000/svg">
<path d="M5.32138 6.82349H1.24219V19.0798H5.32138V6.82349Z" stroke="#656B81"/>
<path d="M5.58907 3.03426C5.5626 1.83254 4.70324 0.917236 3.30777 0.917236C1.91231 0.917236 1 1.83254 1 3.03426C1 4.21109 1.88534 5.15275 3.25482 5.15275H3.28089C4.70324 5.15275 5.58907 4.21109 5.58907 3.03426Z" stroke="#656B81"/>
<path d="M20.0313 12.055C20.0313 8.29044 18.019 6.53833 15.3347 6.53833C13.1689 6.53833 12.1992 7.72793 11.6578 8.56246V6.82646H7.57812C7.63189 7.97652 7.57812 19.0827 7.57812 19.0827H11.6578V12.2378C11.6578 11.8715 11.6843 11.5061 11.7921 11.2439C12.087 10.5121 12.7582 9.75442 13.8852 9.75442C15.3619 9.75442 15.9521 10.8783 15.9521 12.5253V19.0824H20.0312L20.0313 12.055Z" stroke="#656B81"/>
</svg>
