<svg width="19" height="16" viewBox="0 0 19 16" fill="none" xmlns="http://www.w3.org/2000/svg">
<path d="M9.4609 4.63067L9.49867 5.25352L8.86914 5.17725C6.57765 4.8849 4.57574 3.89343 2.876 2.22829L2.04502 1.40207L1.83098 2.0122C1.37772 3.37228 1.6673 4.80863 2.6116 5.77467C3.11523 6.30853 3.00191 6.3848 2.13316 6.06702C1.83098 5.96533 1.56658 5.88907 1.5414 5.9272C1.45326 6.01618 1.75544 7.17288 1.99466 7.63048C2.32202 8.26603 2.98932 8.88887 3.71958 9.25749L4.33652 9.54984L3.60626 9.56256C2.90118 9.56256 2.876 9.57527 2.95155 9.8422C3.20336 10.6684 4.19802 11.5455 5.30599 11.9268L6.08661 12.1937L5.40672 12.6005C4.39947 13.1852 3.21595 13.5157 2.03243 13.5411C1.46585 13.5538 1 13.6047 1 13.6428C1 13.7699 2.53606 14.4817 3.42999 14.7614C6.11179 15.5876 9.29722 15.2317 11.6894 13.8208C13.3892 12.8166 15.0889 10.8209 15.8821 8.88887C16.3102 7.85928 16.7383 5.97804 16.7383 5.07556C16.7383 4.49085 16.7761 4.41459 17.4811 3.71548C17.8966 3.30873 18.2869 2.86384 18.3625 2.73673C18.4884 2.49522 18.4758 2.49522 17.8337 2.71131C16.7635 3.09264 16.6124 3.0418 17.1412 2.4698C17.5315 2.06305 17.9973 1.32581 17.9973 1.10972C17.9973 1.07159 17.8085 1.13514 17.5944 1.24954C17.3678 1.37665 16.8642 1.56732 16.4865 1.68171L15.8066 1.8978L15.1896 1.47834C14.8497 1.24954 14.3712 0.995319 14.1194 0.919053C13.4773 0.741098 12.4952 0.76652 11.9161 0.969897C10.3422 1.54189 9.34758 3.01637 9.4609 4.63067Z" stroke="#2A7FF6"/>
</svg>
